PathFileType	4	(X/Y/Z)	walk-thru1-2-TP.trc
DataRate	CameraRate	NumFrames	NumMarkers	Units	OrigDataRate	OrigDataStartFrame	OrigNumFrames
120.00	120.00	       4	60	mm	120.00	221	       441
Frame#	Time	Top.Head			Front.Head			Rear.Head			Jaw			C7			R.Clavicle			L.Clavicle			R.Shoulder			L.Shoulder			R.Scapula			L.Scapula			R.Scap.Inf			R.Biceps.Lateral			R.Elbow			R.Elbow.Medial			R.Forearm			R.Ulna			R.Radius			R.Wrist			R.Thumb.M1			R.Thumb.M2			R.Thumb.M3			R.Finger3.M1			R.Finger3.M2			R.Finger3.M3			L.Biceps.Lateral			L.Elbow			L.Elbow.Medial			L.Forearm			L.Ulna			L.Radius			L.Wrist			L.Thumb.M1			L.Thumb.M2			L.Thumb.M3			L.Finger3.M1			L.Finger3.M2			L.Finger3.M3			V.Sacral			R.ASIS			L.ASIS			R.Thigh			R.Thigh.Front			R.Knee			R.Knee.Medial			R.Shank			R.Ankle			R.Ankle.Medial			R.Heel			R.Toe			R.MedFoot			L.Thigh			L.Knee			L.Knee.Medial			L.Shank			L.Ankle			L.Ankle.Medial			L.Heel			L.Toe			L.MedFoot			V_mid_ASIS			V_R_Knee_JC			V_L_Knee_JC			V_R_Elbow_JC			V_L_Elbow_JC			V_R_Ankle_JC			V_L_Ankle_JC			V_R_Wrist_JC			V_L_Wrist_JC			V_R_ScaTrpz_1stMC_JC			V_R_1stMC_1stPP_JC			V_R_1stPP_1stDP_JC			V_R_LunCap_3rdMC_JC			V_R_3rdMC_3rdPP_JC			V_R_3rdPP_3rdMP_JC			V_R_3rdMP_3rdDP_JC			V_L_ScaTrpz_1stMC_JC			V_L_1stMC_1stPP_JC			V_L_1stPP_1stDP_JC			V_L_LunCap_3rdMC_JC			V_L_3rdMC_3rdPP_JC			V_L_3rdPP_3rdMP_JC			V_L_3rdMP_3rdPP_JC			V_ROOT_JC			V_R_Hip_JC			V_L_Hip_JC			V_R_GlenHum_JC			V_L_GlenHum_JC			V_ForeHead_Ctr			V_Vertex			V_Sagit_Lambdoid_Suture			V_R_FrontoTemp			V_L_FrontoTemporal			V_R_ParietalOccip			V_L_ParietalOcciptal			V_R_Temporal			V_L_Temporal			V_mid_FrontRearHead			V_mid_RLGlenHumCtrs			V_C7_vert			V_C1_vert			V_Mid_Hip			
		X1	Y1	Z1	X2	Y2	Z2	X3	Y3	Z3	X4	Y4	Z4	X5	Y5	Z5	X6	Y6	Z6	X7	Y7	Z7	X8	Y8	Z8	X9	Y9	Z9	X10	Y10	Z10	X11	Y11	Z11	X12	Y12	Z12	X13	Y13	Z13	X14	Y14	Z14	X15	Y15	Z15	X16	Y16	Z16	X17	Y17	Z17	X18	Y18	Z18	X19	Y19	Z19	X20	Y20	Z20	X21	Y21	Z21	X22	Y22	Z22	X23	Y23	Z23	X24	Y24	Z24	X25	Y25	Z25	X26	Y26	Z26	X27	Y27	Z27	X28	Y28	Z28	X29	Y29	Z29	X30	Y30	Z30	X31	Y31	Z31	X32	Y32	Z32	X33	Y33	Z33	X34	Y34	Z34	X35	Y35	Z35	X36	Y36	Z36	X37	Y37	Z37	X38	Y38	Z38	X39	Y39	Z39	X40	Y40	Z40	X41	Y41	Z41	X42	Y42	Z42	X43	Y43	Z43	X44	Y44	Z44	X45	Y45	Z45	X46	Y46	Z46	X47	Y47	Z47	X48	Y48	Z48	X49	Y49	Z49	X50	Y50	Z50	X51	Y51	Z51	X52	Y52	Z52	X53	Y53	Z53	X54	Y54	Z54	X55	Y55	Z55	X56	Y56	Z56	X57	Y57	Z57	X58	Y58	Z58	X59	Y59	Z59	X60	Y60	Z60	

221	1.833	62.11412	57.69602	1546.18640	165.64047	50.96201	1448.95593	-47.98620	56.82507	1461.96606	138.66168	36.65478	1307.39368	-63.14439	39.41629	1352.34338	19.13850	-75.48553	1265.87109	40.93036	138.38356	1272.99707	-33.51642	-149.32085	1257.54956	-4.22772	235.38695	1271.11194	-112.12283	-45.33810	1273.57434	-105.03226	139.12831	1274.94897	-155.22479	-24.45969	1190.66736	2.89612	-202.16743	1118.00916	-5.43423	-225.70737	955.77765	-30.33998	-155.96547	934.43182	89.88139	-216.32472	904.12067	88.05275	-237.71625	814.30103	165.41357	-192.08153	791.72308	171.12854	-231.22900	757.13708	203.35829	-190.87724	751.28815	224.21628	-173.53951	722.29565	242.05498	-159.96184	685.26434	212.23640	-240.89391	689.72650	226.63785	-216.83234	643.40399	224.44356	-194.35204	609.35315	-16.40066	297.44760	1125.39392	-60.91584	310.77780	980.23779	-83.67935	231.92360	971.23444	27.65208	288.52795	921.04120	23.39754	325.43015	828.22198	74.94543	265.28253	790.65033	87.61829	313.51144	766.46558	108.62323	268.27579	758.06329	121.27903	246.08136	721.51666	131.12088	236.41704	672.73029	122.92089	310.71896	684.69366	127.45034	298.31558	645.06976	118.65940	264.26587	611.27069	-159.61459	59.74509	886.22473	22.37592	-113.61887	951.93396	38.52628	203.99516	933.55566	-21.55405	-140.47644	562.10999	28.26253	-68.16834	461.45605	-31.25294	-99.97553	420.36435	-22.75485	10.45613	417.41031	-86.55058	-45.67245	255.01506	-228.15468	-53.51418	78.72250	-205.91898	36.61229	92.31184	-288.67477	3.69970	64.42289	-90.89581	-35.13066	36.80109	-143.83717	10.67183	64.41670	118.94893	219.44824	570.49323	192.94182	189.64287	452.71411	207.39668	66.12208	446.42642	219.14189	125.59686	263.28827	172.07382	147.42545	68.54678	183.57637	56.09397	86.73647	115.64086	98.89400	42.41585	314.65341	105.49927	48.33295	262.14474	73.82134	65.43359																																																																																																																															
222	1.842	67.75568	58.81807	1546.62061	172.07610	51.27377	1449.43347	-41.57839	57.52751	1462.18005	144.95615	37.23784	1307.97668	-56.10538	39.61518	1352.27576	25.35768	-75.13282	1265.86096	46.78382	138.61897	1273.13525	-27.60276	-147.71284	1257.86377	2.84347	236.63699	1270.69067	-106.75086	-43.77510	1273.54846	-98.82958	139.34413	1274.84436	-149.92422	-23.20474	1190.65515	8.73948	-201.12923	1118.04041	-0.45952	-224.27357	955.66882	-25.31041	-154.53568	933.49640	94.47343	-214.45959	903.59814	91.12617	-236.72987	812.96399	167.97508	-189.15521	789.68903	174.63831	-229.34315	755.10120	206.05539	-189.57237	749.45667	226.36916	-170.55272	720.72852	244.41432	-159.21614	683.30273	214.73209	-239.38539	688.82318	229.63947	-218.10115	641.07294	227.09480	-194.81885	607.59778	-9.01089	298.31860	1124.83215	-54.14256	311.46527	979.94824	-77.36330	232.85689	970.27991	33.48167	289.40176	920.97095	28.53128	324.76709	827.57416	83.48914	265.81235	791.89862	94.22970	314.21286	765.26837	114.96333	268.28561	757.11053	128.85728	245.93184	721.36212	135.96419	235.46082	672.38196	128.85306	311.88425	683.21979	134.79695	297.36545	643.59839	125.01440	263.68240	610.27783	-152.99559	60.69209	885.61420	29.09932	-113.37712	950.35541	45.31103	204.31451	933.55078	-15.89547	-139.96144	561.70703	35.04434	-68.27203	461.25623	-24.99120	-100.30984	420.02213	-16.12926	10.41168	416.86621	-82.37638	-45.40995	255.20001	-226.97491	-53.02778	81.07528	-204.85565	36.86374	94.72540	-288.31931	3.69973	68.18889	-90.72556	-35.17179	36.80323	-142.98494	10.86031	65.43438	127.92954	219.94405	571.29016	198.91228	190.97701	453.16849	213.69264	67.60641	447.09528	222.08066	127.23534	262.52896	175.26466	147.34084	68.25639	183.62540	56.70861	86.73515	116.76398	99.98003	43.07560	317.02618	104.81319	46.96828	262.93182	74.59859	65.60222																																																																																																																															
223	1.850	73.65894	59.55975	1547.07080	177.95839	52.80177	1449.47644	-35.56274	57.93620	1462.52368	151.54881	38.47017	1308.41626	-49.42575	40.58520	1351.83057	31.90011	-73.71248	1266.40796	54.14664	141.75433	1273.28186	-21.62140	-147.10974	1258.04578	9.04385	237.92305	1270.74365	-99.98425	-42.40886	1273.91711	-92.22475	141.04190	1275.18726	-143.49692	-22.58282	1191.38989	13.20290	-199.96938	1118.65698	3.74864	-222.74197	955.85791	-20.32095	-151.95708	934.56012	98.18536	-212.57033	902.69391	94.89758	-235.05444	813.24792	169.94806	-187.93898	787.69897	177.11995	-227.42569	754.93945	208.63652	-187.36328	747.43378	227.60873	-169.08455	717.21686	246.05475	-158.15309	680.31274	216.73587	-238.53171	687.27667	231.81883	-215.41901	640.19525	229.10545	-195.17046	605.10199	-1.61938	299.56512	1124.99866	-46.28033	312.24255	979.53564	-70.67396	235.07021	970.38666	41.28472	290.60141	920.34253	36.15157	325.32428	826.90802	88.82162	266.39700	789.44025	100.82714	314.77927	764.77997	120.78378	269.42154	757.04895	135.08438	247.33357	721.41272	143.27193	235.57559	671.78094	133.94052	311.85681	681.65155	139.72125	297.48657	643.03033	129.66536	263.45154	609.88898	-146.49638	62.53033	886.20123	34.61406	-112.88618	950.78894	52.01283	204.75264	933.96674	-8.68275	-139.52856	561.30267	40.16447	-68.19738	459.92004	-19.02624	-99.82890	419.38388	-8.55449	10.47904	416.89172	-78.36513	-44.55806	255.12395	-225.96304	-52.98653	83.54241	-202.92987	37.02425	97.00512	-287.33731	3.72893	72.25377	-90.24097	-35.00674	37.17305	-141.27289	11.24257	66.60503	134.67911	220.93643	572.48602	205.57098	191.44423	454.19763	219.58972	69.17745	447.45987	225.91840	127.89709	262.68658	173.90767	148.26181	67.08611	184.59695	56.47591	86.93761	116.95428	100.45270	43.34417	320.25766	106.83048	46.47798	262.94754	75.04238	65.30404																																																																																																																															
224	1.858	80.15597	61.32109	1547.74512	184.65320	53.45426	1450.23938	-29.25303	60.21216	1463.21533	157.76569	38.91667	1308.98401	-42.65302	42.14751	1353.22668	38.09631	-72.66220	1266.93787	60.59855	142.42136	1273.46216	-15.57353	-145.74146	1258.57031	15.62295	238.88753	1270.98206	-93.88396	-40.72068	1274.28589	-85.02225	141.66524	1275.88196	-137.49728	-21.47194	1191.60046	18.91020	-198.19347	1118.84656	8.11915	-221.67751	956.66956	-16.49520	-151.89325	934.74237	102.65765	-211.27245	902.26929	97.52475	-234.33420	813.13855	173.05234	-185.97510	786.92487	179.84299	-225.58311	753.67920	210.53424	-185.83162	745.64899	228.80362	-167.91481	714.95844	246.94765	-156.71126	677.43414	219.80215	-236.74046	686.15900	232.86719	-216.15977	638.69861	230.13042	-195.65628	603.27539	5.43217	300.04953	1124.27539	-40.27678	313.30591	979.22601	-64.24081	235.41928	970.90619	47.73654	291.53845	919.99750	42.29430	326.94858	827.18024	95.18268	266.78137	789.22003	106.81345	313.87961	764.50507	129.30338	272.58817	757.36346	142.71159	247.86644	721.24615	149.66908	235.53525	671.57928	140.24809	312.02985	681.53656	146.23102	296.91324	642.90845	135.01706	263.29352	609.28979	-140.02068	62.77450	886.45319	41.40310	-112.71795	950.99469	59.32662	205.36168	934.74176	-1.53854	-139.44240	561.28314	47.16206	-67.68575	459.33350	-11.49240	-100.04435	418.77643	-1.31533	10.52744	416.07800	-73.78107	-43.71989	255.92978	-224.69987	-52.71062	86.42024	-202.24031	37.37533	99.31953	-285.67206	4.32941	76.10384	-90.28745	-35.60279	36.90556	-140.29164	10.84559	68.01071	142.40492	222.78162	574.01544	211.36821	192.27954	454.43250	224.79846	71.31053	448.41162	228.06390	129.13388	261.49753	173.81697	148.42888	66.94215	185.09767	57.21678	87.28407	117.14704	100.90464	43.57362	323.23953	108.64037	45.57149	263.35135	75.35755	65.19969																																																																																																																															
